Coordinates
version=1
nRows=16
nColumns=36
inDegrees=yes

Units are S.I. units (second, meters, Newtons, ...)
If the header above contains a line with 'inDegrees', this indicates whether rotational values are in degrees (yes) or radians (no).

endheader
time	pelvis_tilt	pelvis_list	pelvis_rotation	pelvis_tx	pelvis_ty	pelvis_tz	hip_flexion_r	hip_adduction_r	hip_rotation_r	knee_angle_r	knee_angle_r_beta	ankle_angle_r	subtalar_angle_r	mtp_angle_r	hip_flexion_l	hip_adduction_l	hip_rotation_l	knee_angle_l	knee_angle_l_beta	ankle_angle_l	subtalar_angle_l	mtp_angle_l	lumbar_extension	lumbar_bending	lumbar_rotation	arm_flex_r	arm_add_r	arm_rot_r	elbow_flex_r	pro_sup_r	arm_flex_l	arm_add_l	arm_rot_l	elbow_flex_l	pro_sup_l
      3.21666670	     -5.66987809	     -2.50950839	      1.92977371	     -0.01085331	      1.01222073	      0.07244548	      3.15541566	     -4.13694653	    -18.93998536	      0.55530881	      0.00969197	      3.51860235	     -1.86046744	     -7.49999987	      1.90540801	     -9.97809051	    -20.58712011	      0.25288702	      0.00441371	      4.83761258	     11.24147494	     -7.49999987	     10.45353852	      2.54134674	      0.66684855	     36.79233014	      4.27274812	     64.61562601	    115.09895397	     83.52049957	     51.06551586	     -0.91015544	     79.54049313	    121.04447385	     61.02700544
      3.23333330	     -5.59607796	     -2.47301904	      1.84578034	     -0.00885332	      1.01160819	      0.07333440	      3.15006370	     -4.18349609	    -18.77588987	      0.59440389	      0.01037431	      3.31030825	     -2.05211186	     -7.49999987	      1.86426074	     -9.95167359	    -20.67375209	      0.25987691	      0.00453571	      4.76080718	     11.29870519	     -7.49999987	     10.23829395	      2.51947010	      0.76672565	     36.96589589	      4.02930013	     64.09959040	    114.64920206	     83.95987452	     51.22143397	     -0.89149617	     79.73615140	    120.89949958	     61.02369345
      3.25000000	     -5.56346370	     -2.50261960	      1.77498783	     -0.00924008	      1.00993152	      0.07356173	      3.21048549	     -4.16075017	    -18.65233330	      0.65686682	      0.01146449	      3.16732355	     -2.25432604	     -7.49999987	      1.84309100	     -9.99057115	    -20.61950255	      0.26995721	      0.00471164	      4.77890369	     11.15009469	     -7.49999987	     10.09525732	      2.61190164	      0.77256786	     37.22188180	      3.99301056	     63.91755033	    114.55140362	     83.37381511	     51.32528241	     -0.95773708	     79.66312553	    120.92807750	     61.03770025
      3.26666670	     -5.48745290	     -2.51186475	      1.70889554	     -0.01003362	      1.01169056	      0.07326169	      3.20238727	     -4.15307679	    -18.47004092	      0.68352749	      0.01192981	      2.88574063	     -2.60924461	     -7.49999987	      1.78034521	    -10.02684722	    -20.57967684	      0.27156895	      0.00473977	      4.81157652	     11.06703974	     -7.49999987	      9.89669306	      2.63077360	      0.89732796	     37.36551270	      3.75790868	     63.34874338	    113.95102285	     86.66330433	     51.56383495	     -0.85563799	     79.82658549	    120.76925030	     61.20752253
      3.28333330	     -5.53401183	     -2.52992438	      1.70571442	     -0.00946498	      1.01082270	      0.07354654	      3.30401814	     -4.13807431	    -18.60508528	      0.72643602	      0.01267870	      2.85744456	     -2.66984186	     -7.49999987	      1.83842202	    -10.05749369	    -20.51962883	      0.28698899	      0.00500890	      4.90790334	     11.00536014	     -7.49999987	      9.93606882	      2.60907294	      0.86332800	     37.48778710	      3.69026743	     63.24061475	    113.79115770	     86.58265539	     51.64108129	     -0.84320948	     79.81901347	    120.72537414	     61.20833898
      3.30000000	     -5.45414200	     -2.52650947	      1.61046095	     -0.00870305	      1.01166432	      0.07442351	      3.20465742	     -4.10797055	    -18.44394594	      0.70722267	      0.01234336	      2.63052393	     -2.74188522	     -7.49999987	      1.70461952	    -10.07741930	    -20.55716556	      0.27602707	      0.00481758	      4.79100571	     10.92027837	     -7.49999987	      9.81687607	      2.67831647	      0.95289688	     37.59835106	      3.78189218	     62.88118550	    112.91361690	     86.13412588	     51.87463913	     -0.97766474	     79.99532163	    120.69505079	     61.26331542
      3.31666670	     -5.52121663	     -2.54507995	      1.65897054	     -0.00786964	      1.01004462	      0.07434593	      3.24315547	     -4.07278423	    -18.44438232	      0.68087820	      0.01188357	      2.27660169	     -3.22474032	     -7.49999987	      1.77263447	    -10.10436238	    -20.00882790	      0.28100206	      0.00490441	      4.57644091	      9.97369659	     -7.49999987	      9.90456270	      2.70329443	      0.80735340	     37.51433371	      3.95722162	     62.96559877	    113.19940062	     84.78083454	     51.89192909	     -1.16024215	     79.90026355	    120.86682436	     61.30328931
      3.33333330	     -5.44103247	     -2.51560735	      1.54233659	     -0.00750506	      1.01401564	      0.07497137	      3.13171199	     -4.06105209	    -18.57843793	      0.66273005	      0.01156682	      2.54335064	     -2.77152110	     -7.49999987	      1.62536982	    -10.11308223	    -20.49824514	      0.27909042	      0.00487105	      4.80114425	     10.72252868	     -7.49999987	      9.83744552	      2.70650093	      1.01679626	     37.41137175	      4.09266721	     63.32657883	    113.10842628	     84.65736637	     51.69644568	     -1.26784385	     79.94389707	    120.82034130	     61.37731961
      3.35000000	     -5.57024336	     -2.55008521	      1.54982397	     -0.00973834	      1.00975014	      0.07366494	      3.29085216	     -4.04967814	    -18.68140640	      0.66472010	      0.01160155	      2.50921044	     -2.72536926	     -7.49999987	      1.74796694	    -10.12347091	    -20.67357120	      0.26865286	      0.00468888	      4.97306202	     10.94076489	     -7.49999987	      9.93189195	      2.75623885	      1.02536475	     37.40764394	      4.14696483	     63.16572112	    112.82496731	     86.92282091	     51.71798816	     -1.21577391	     79.96212803	    120.93814011	     61.96166512
      3.36666670	     -5.73799190	     -2.48946486	      1.54928889	     -0.01063845	      1.01404276	      0.07290674	      3.46310388	     -4.15926404	    -18.90962416	      0.62882671	      0.01097510	      2.46467075	     -2.49063656	     -7.49999987	      1.91268067	    -10.02784703	    -20.85955767	      0.25382867	      0.00443015	      4.98313521	     11.14612142	     -7.49999987	      9.96797641	      2.71190887	      1.03688313	     37.49279001	      4.31270460	     63.77906313	    112.80186088	     85.31508140	     51.51118224	     -1.25965947	     80.19102084	    120.99063253	     61.95538265
      3.38333330	     -5.80548398	     -2.51082327	      1.57713465	     -0.00996950	      1.00930392	      0.07298062	      3.54273210	     -4.17112349	    -18.90087893	      0.60212858	      0.01050913	      2.47597620	     -2.48443694	     -7.49999987	      1.98643237	    -10.01658297	    -20.89074034	      0.24799322	      0.00432830	      5.03753127	     11.12295901	     -7.49999987	      9.84725267	      2.74978054	      1.00047576	     37.52809971	      4.27554180	     63.73706032	    112.77167118	     85.32371805	     51.56374369	     -1.22831289	     80.16193180	    121.00112960	     61.95511259
      3.40000000	     -5.84254472	     -2.52477430	      1.55282034	     -0.00923243	      1.00931823	      0.07387929	      3.56030571	     -4.15543917	    -18.67327758	      0.60864214	      0.01062281	      2.41809513	     -2.81299736	     -7.49999987	      2.02990235	    -10.02208298	    -20.99622577	      0.23455429	      0.00409374	      5.14205014	     11.24499572	     -7.49999987	      9.77759715	      2.81704841	      1.05627163	     37.54859770	      4.09731146	     63.22792776	    112.64192109	     83.37376485	     51.73556747	     -1.19225152	     80.02493119	    121.31496234	     61.89389217
      3.41666670	     -5.96552139	     -2.56227302	      1.60631121	     -0.01191526	      1.01372164	      0.07297427	      3.72822275	     -4.13574837	    -19.09957830	      0.61970493	      0.01081589	      2.49700646	     -2.21986324	     -7.49999987	      2.25933791	    -10.03799092	    -20.95163463	      0.23152327	      0.00404084	      5.12233379	     11.27680880	     -7.49999987	      9.80968326	      2.83914628	      1.13079664	     37.47366054	      4.05296105	     63.23095987	    112.96716303	     86.95355469	     51.83788381	     -1.05830912	     80.38555415	    121.01752720	     62.02262615
      3.43333330	     -5.93959302	     -2.58929852	      1.66430166	     -0.01234784	      1.01048482	      0.07335298	      3.76045431	     -4.09417373	    -19.02139328	      0.65379331	      0.01141085	      2.47800431	     -2.34680003	     -7.49999987	      2.29716743	    -10.04533556	    -20.96453938	      0.22696880	      0.00396135	      5.09377678	     11.31798398	     -7.49999987	      9.65269108	      2.84078003	      1.00326997	     37.66668136	      4.14630628	     63.48564020	    113.19802904	     86.30752842	     52.10204652	     -1.08798421	     80.40503354	    121.03432864	     62.01929618
      3.45000000	     -5.96623264	     -2.61677591	      1.71651998	     -0.01156871	      1.00888702	      0.07340087	      3.81359424	     -4.06860950	    -19.04510375	      0.72959293	      0.01273380	      2.57627234	     -2.30612763	     -7.49999987	      2.36551862	    -10.07138767	    -21.04549316	      0.22440544	      0.00391661	      5.10594595	     11.46694895	     -7.49999987	      9.64247830	      2.85005508	      0.86823681	     37.86621970	      4.22043812	     63.66833094	    113.38577140	     85.16834908	     52.25961025	     -1.11302949	     80.32320507	    121.08676234	     61.98783391
      3.46666670	     -5.98517223	     -2.67098909	      1.79037082	     -0.01173575	      1.00778607	      0.07335692	      3.86168762	     -4.03260031	    -18.96533113	      0.82897759	      0.01446839	      2.52872787	     -2.60044191	     -7.49999987	      2.43213129	    -10.13133605	    -21.19896511	      0.22163970	      0.00386834	      5.19799105	     11.64972701	     -7.49999987	      9.70121484	      2.89764208	      0.82788776	     38.06550308	      4.43161977	     64.03133707	    113.74608627	     84.73502818	     52.43207547	     -1.06419354	     80.22467850	    121.27803196	     62.01966285
